PathFileType	4	(X/Y/Z)	D:\TRACE\spot_10-12-23\spot_arm_body_motion_3_3-platform.trc
DataRate	CameraRate	NumFrames	NumMarkers	Units	OrigDataRate	OrigDataStartFrame	OrigNumFrames
100.00	100.00	      72	5	mm	100.00	1751	      7000
Frame#	Time	Left_Front			Right_Front			Left_Aft			Right_Aft			Post			
		X1	Y1	Z1	X2	Y2	Z2	X3	Y3	Z3	X4	Y4	Z4	X5	Y5	Z5	

1751	17.500	-764.23810	29.40672	-635.70679	808.53809	34.12343	-628.74341	-681.05737	-11.03155	501.84360	736.15845	-9.33117	587.73663	18.68557	778.04004	-928.37518	
1752	17.510	-764.27594	29.60856	-635.51251	808.39545	34.25048	-628.66931	-681.17505	-11.05414	501.72684	736.08142	-9.34828	587.76727	18.55283	778.15155	-928.23126	
1753	17.520	-764.54938	29.81251	-635.50165	808.18951	34.40386	-628.61511	-681.19019	-10.90291	501.76840	735.91589	-9.38997	587.76636	18.50596	778.33765	-927.89886	
1754	17.530	-764.69281	29.70062	-635.49054	808.05463	34.50607	-628.53625	-681.32745	-10.91635	501.77872	735.71216	-9.42132	587.79364	18.32420	778.46490	-927.68890	
1755	17.540	-764.87756	29.68994	-635.52271	807.93506	34.46347	-628.58124	-681.61615	-11.12416	501.82416	735.60693	-9.61070	587.74786	18.17935	778.52899	-927.49390	
1756	17.550	-765.05664	29.97266	-635.55096	807.76935	34.52158	-628.60284	-681.70691	-11.22122	501.79315	735.44562	-9.66832	587.72156	18.09340	778.57886	-927.34253	
1757	17.560	-765.12231	30.20671	-635.54919	807.70917	34.59022	-628.56628	-681.91620	-11.38355	501.77417	735.36908	-9.73401	587.71277	18.05226	778.67004	-927.10992	
1758	17.570	-765.25012	30.31476	-635.47369	807.49213	34.66320	-628.63525	-682.06519	-11.36563	501.84958	735.24725	-9.76752	587.74335	17.91211	778.75470	-926.95520	
1759	17.580	-765.42206	30.46095	-635.44965	807.39349	34.77957	-628.57617	-682.24597	-11.38968	501.85336	735.07147	-9.83986	587.74243	17.69507	778.92114	-926.83527	
1760	17.590	-765.63550	30.50968	-635.42346	807.16016	34.95715	-628.54736	-682.50208	-11.53117	501.83655	734.87445	-10.04288	587.75073	17.50951	779.07123	-926.72504	
1761	17.600	-765.83490	30.61032	-635.39600	806.93433	35.08636	-628.58911	-682.71881	-11.72325	501.80173	734.71509	-10.19641	587.79486	17.30577	779.20752	-926.64435	
1762	17.610	-766.05951	30.85238	-635.39783	806.80664	35.14649	-628.53314	-682.85406	-11.86351	501.77649	734.57800	-10.22796	587.88611	17.12932	779.36798	-926.47559	
1763	17.620	-766.23126	30.97351	-635.37054	806.65094	35.30311	-628.49542	-683.01617	-11.84757	501.88708	734.39044	-10.24309	587.94073	16.86066	779.66937	-926.40839	
1764	17.630	-766.42847	31.11085	-635.35620	806.39966	35.46737	-628.39209	-683.07568	-11.93076	501.86206	734.23242	-10.37448	587.97729	16.67324	780.03717	-926.29492	
1765	17.640	-766.57007	31.23627	-635.38806	806.19141	35.75302	-628.16583	-683.33508	-11.99809	501.92294	733.83954	-10.55891	588.08466	16.47433	780.33179	-926.14447	
1766	17.650	-766.78571	31.47472	-635.39349	805.92578	35.87193	-628.14832	-683.54688	-12.14554	501.90814	733.63666	-10.71792	588.14380	16.42733	780.50873	-925.98395	
1767	17.660	-766.97858	31.63445	-635.36859	805.72321	35.89693	-628.06409	-683.89691	-12.22913	501.86673	733.44611	-10.79702	588.15918	16.20021	780.65820	-925.74597	
1768	17.670	-767.16718	31.64255	-635.30518	805.65497	35.93218	-628.03198	-684.18524	-12.41234	501.93625	733.32129	-10.82375	588.23914	15.91966	780.87421	-925.46631	
1769	17.680	-767.29700	31.72483	-635.19794	805.44983	36.11671	-627.99677	-684.43732	-12.47380	501.95117	733.16199	-10.89698	588.25555	15.51061	781.05286	-925.09119	
1770	17.690	-767.47296	31.91025	-635.12732	805.40619	36.30621	-627.78888	-684.55811	-12.58587	502.05807	732.94824	-11.12086	588.25208	15.44751	781.35553	-924.77802	
1771	17.700	-767.61285	32.15053	-634.99078	805.23297	36.47921	-627.80206	-684.69836	-12.74791	502.10669	732.76825	-11.29989	588.22333	15.34272	781.60168	-924.46576	
1772	17.710	-767.89648	32.35387	-634.90210	804.78540	36.68631	-627.69312	-684.96991	-12.90219	502.16159	732.51355	-11.46370	588.30005	15.10524	781.86176	-924.19849	
1773	17.720	-768.38251	32.67335	-634.81641	804.33331	36.98082	-627.70984	-685.34698	-13.03102	502.15378	732.20734	-11.60252	588.40192	14.66074	782.15973	-923.85522	
1774	17.730	-768.86206	32.89504	-634.74146	803.87244	37.26097	-627.87506	-685.54077	-13.15243	502.25217	731.71521	-11.80458	588.44019	14.27794	782.47833	-923.51147	
1775	17.740	-769.20001	33.11942	-634.70551	803.60638	37.50970	-627.86603	-685.79431	-13.33285	502.24979	731.33862	-12.08076	588.46973	13.92058	782.76453	-923.24835	
1776	17.750	-769.30957	33.41183	-634.77856	803.45728	37.74478	-627.75616	-686.12421	-13.50449	502.36325	731.01709	-12.33273	588.56738	13.65878	783.08020	-923.05347	
1777	17.760	-769.46454	33.54531	-634.73676	803.29602	37.95767	-627.69446	-686.41656	-13.67003	502.40317	730.81903	-12.45479	588.63031	13.46954	783.45361	-922.81549	
1778	17.770	-769.74274	33.72969	-634.70111	802.97998	38.20210	-627.61615	-686.60272	-13.84314	502.47723	730.58167	-12.63108	588.71423	13.19638	783.85541	-922.52679	
1779	17.780	-770.05975	33.95185	-634.67999	802.62067	38.46872	-627.58710	-686.95184	-14.01922	502.47507	730.31641	-12.81912	588.74298	12.87548	784.20770	-922.13507	
1780	17.790	-770.42938	34.01065	-634.47028	802.29034	38.71362	-627.52472	-687.30066	-14.20611	502.48526	730.10779	-13.02680	588.75696	12.48002	784.68475	-921.72095	
1781	17.800	-770.80731	34.59720	-634.32239	801.95996	38.95002	-627.41333	-687.58551	-14.43071	502.51871	729.90057	-13.19130	588.75128	12.17646	785.01740	-921.45569	
1782	17.810	-771.15796	34.87802	-634.17432	801.65997	39.12232	-627.37109	-687.77942	-14.52032	502.58652	729.60999	-13.35485	588.79120	11.85234	785.25116	-921.09595	
1783	17.820	-771.37610	35.04170	-634.10980	801.35400	39.37398	-627.26941	-688.19110	-14.78672	502.62201	729.15668	-13.58127	588.89233	11.46832	785.60315	-920.63348	
1784	17.830	-771.58130	35.16003	-634.08228	801.02240	39.58408	-627.15613	-688.44897	-14.97333	502.72690	728.71460	-13.86975	588.94751	11.18269	785.90906	-920.21307	
1785	17.840	-772.01971	35.53339	-634.10553	800.71381	39.83528	-627.07471	-688.86224	-15.15265	502.75656	728.27893	-14.07507	589.01904	11.01351	786.19537	-919.92615	
1786	17.850	-772.36212	35.73275	-634.08832	800.33478	40.10055	-627.07703	-689.25000	-15.34648	502.78149	727.84528	-14.39235	589.00787	10.59811	786.51318	-919.57910	
1787	17.860	-772.82001	35.99563	-634.00458	799.98010	40.53782	-626.92224	-689.60187	-15.47539	502.86996	727.56384	-14.60180	589.04791	10.02854	786.92450	-919.21021	
1788	17.870	-773.20374	36.22106	-633.90295	799.65601	40.77342	-627.00598	-690.02777	-15.61884	502.95416	727.31946	-14.75551	589.11926	9.64598	787.42853	-918.78839	
1789	17.880	-773.60468	36.53187	-633.79034	799.37994	41.12862	-626.75049	-690.38647	-15.80557	503.02402	727.04724	-14.92433	589.17896	9.50357	787.83069	-918.40759	
1790	17.890	-773.88904	36.87117	-633.73132	799.15161	41.33633	-626.65735	-690.62860	-15.99215	503.08505	726.70728	-15.18749	589.22839	9.22627	788.36615	-918.12537	
1791	17.900	-774.07959	37.02361	-633.59888	798.90826	41.58610	-626.48108	-690.93878	-16.21293	503.12833	726.37695	-15.45135	589.25378	8.81856	788.74023	-917.75189	
1792	17.910	-774.61920	37.43312	-633.44141	798.40790	41.94126	-626.35669	-691.37317	-16.42932	503.17328	726.05994	-15.79929	589.25977	8.40319	789.03955	-917.31201	
1793	17.920	-774.97845	37.67786	-633.31091	797.88031	42.29424	-626.33813	-691.69470	-16.61087	503.30536	725.55896	-16.01282	589.35962	7.99396	789.50690	-916.79236	
1794	17.930	-775.27374	37.87772	-633.21350	797.66138	42.58739	-626.20441	-691.96405	-16.75947	503.39462	725.24481	-16.20667	589.44189	7.81085	789.91547	-916.31177	
1795	17.940	-775.50879	38.18883	-633.27966	797.26154	42.84581	-626.17358	-692.42303	-17.01138	503.38904	724.85834	-16.42905	589.47687	7.38387	790.35779	-915.73065	
1796	17.950	-775.99670	38.40495	-633.20721	796.92865	43.08250	-626.10083	-692.89508	-17.19266	503.43680	724.45245	-16.64298	589.52740	7.17070	790.68195	-915.25336	
1797	17.960	-776.42767	38.61797	-633.05396	796.46680	43.20661	-625.97607	-693.32922	-17.42834	503.42645	723.89429	-16.94957	589.54889	6.87220	790.87140	-914.91272	
1798	17.970	-776.95544	38.99895	-632.95300	795.96930	43.41815	-625.98676	-693.58667	-17.67002	503.54633	723.53815	-17.22405	589.56458	6.29080	791.29529	-914.37738	
1799	17.980	-777.37378	39.30910	-632.85669	795.53326	43.69890	-625.86255	-694.04993	-17.88789	503.51099	723.24164	-17.43919	589.60602	5.83557	791.80682	-913.91559	
1800	17.990	-777.74872	39.49416	-632.79340	795.12384	44.02393	-625.71783	-694.41998	-18.10098	503.50891	722.91461	-17.73206	589.70673	5.59202	792.22406	-913.67920	
1801	18.000	-778.10516	39.88962	-632.72711	794.88641	44.21229	-625.65137	-694.67999	-18.34013	503.80630	722.61481	-17.93760	589.81323	5.37072	792.74603	-913.35980	
1802	18.010	-778.49634	40.22035	-632.70563	794.46875	44.46121	-625.72760	-694.96320	-18.44873	503.94925	722.32654	-18.12724	589.79321	5.06250	793.11023	-913.02631	
1803	18.020	-778.59155	40.33884	-632.65009	794.01154	44.98875	-625.58960	-695.48706	-18.65569	504.00388	721.83344	-18.32383	589.85321	4.51809	793.49487	-912.63654	
1804	18.030	-779.03687	40.60522	-632.58508	793.60028	45.24617	-625.60315	-695.92456	-18.92765	504.11554	721.24731	-18.65115	589.86298	4.08558	793.97266	-912.19977	
1805	18.040	-779.43054	40.91288	-632.44244	793.10968	45.56252	-625.39789	-696.41254	-19.08598	504.15039	720.77753	-19.00801	589.89014	3.56861	794.40350	-911.84894	
1806	18.050	-779.72345	41.06952	-632.37231	792.72882	45.81350	-625.36627	-696.77466	-19.23785	504.23270	720.51862	-19.19726	589.95813	2.95164	794.72253	-911.35419	
1807	18.060	-780.30817	41.45922	-632.30798	792.37750	46.09428	-625.23273	-697.10468	-19.42686	504.37036	720.12708	-19.43381	590.11261	2.70151	794.97003	-910.85278	
1808	18.070	-780.88507	41.92789	-632.23920	792.05017	46.40759	-625.21985	-697.53387	-19.69097	504.36398	719.91125	-19.60426	590.24329	2.60377	795.30829	-910.45483	
1809	18.080	-781.27765	42.13013	-632.04761	791.83636	46.59906	-625.14508	-697.86481	-19.86771	504.45447	719.51642	-19.72606	590.34705	2.08821	795.65509	-909.82611	
1810	18.090	-781.52277	42.33573	-632.07819	791.34839	46.74686	-625.05798	-698.14490	-20.16763	504.57303	719.08374	-19.94385	590.38391	1.69227	796.19177	-909.40277	
1811	18.100	-781.97339	42.55208	-632.07935	790.81152	47.07372	-624.97028	-698.60248	-20.27158	504.54941	718.39636	-20.27525	590.28735	1.45029	796.63226	-909.12366	
1812	18.110	-782.46155	42.99309	-632.10876	790.42426	47.28986	-624.84857	-699.09912	-20.54236	504.46222	717.92725	-20.48172	590.28870	0.88135	797.01672	-908.81189	
1813	18.120	-782.81677	43.07586	-631.92126	789.99036	47.57053	-624.81964	-699.65283	-20.58740	504.34891	717.58350	-20.63219	590.33203	0.28885	797.32983	-908.45343	
1814	18.130	-783.14917	43.33842	-631.78815	789.57629	47.79789	-624.77057	-700.06262	-20.68340	504.42761	717.28558	-20.76075	590.43188	0.01761	797.56525	-908.18597	
1815	18.140	-783.36078	43.50725	-631.65912	789.26752	47.94662	-624.65283	-700.44476	-20.79951	504.51071	716.95410	-20.82498	590.55731	-0.42405	797.94690	-907.87769	
1816	18.150	-783.75098	43.77401	-631.60516	788.93347	48.12320	-624.45728	-700.82739	-20.93182	504.53879	716.58087	-21.03502	590.65149	-0.68975	798.21094	-907.72784	
1817	18.160	-784.22205	44.04122	-631.62848	788.52454	48.27306	-624.33600	-701.15210	-21.05665	504.58914	716.13336	-21.33061	590.69312	-1.08106	798.50269	-907.47046	
1818	18.170	-784.76489	44.34184	-631.62946	787.90918	48.52048	-624.28119	-701.66656	-21.22915	504.64670	715.80499	-21.56537	590.69897	-1.62775	798.84039	-907.13275	
1819	18.180	-785.20551	44.52573	-631.59967	787.40765	48.85977	-624.40460	-701.93805	-21.37652	504.72519	715.44287	-21.76904	590.74261	-2.26971	799.13019	-906.86194	
1820	18.190	-785.53113	44.58150	-631.47546	787.15375	49.09274	-624.36169	-702.26801	-21.54525	504.77145	714.96527	-21.89159	590.80103	-2.48234	799.33575	-906.60425	
1821	18.200	-785.83832	44.62769	-631.29877	786.91852	49.27196	-624.25433	-702.72675	-21.71306	504.79236	714.33044	-22.07659	590.90778	-2.72166	799.55054	-906.27417	
1822	18.210	-786.11877	44.73031	-631.19653	786.63098	49.43600	-624.16437	-703.09644	-21.77554	504.73358	713.95825	-22.20678	590.95532	-3.16518	799.85406	-905.94122	
